<svg xmlns="http://www.w3.org/2000/svg" viewBox="0 0 64 64"><defs><style>.a{fill:#10b981}.b{fill:#fff;opacity:.95}</style></defs><rect width="64" height="64" rx="12" class="a"/><path class="b" d="M42 34a10 10 0 1 1-10-10 10 10 0 0 1 10 10Zm-2.1 8.5-2-3.46a8 8 0 0 1-3 .78L34 43h-4l-.9-3.18a8 8 0 0 1-3-.78L24 42.5l-3.46-2 1.1-3a8 8 0 0 1-1.8-2.92l-3.18-.9v-4l3.18-.9a8 8 0 0 1 1.8-2.92l-1.1-3 3.46-2 2 3.46a8 8 0 0 1 3-.78L30 21h4l.9 3.18a8 8 0 0 1 3 .78L40 21.5l3.46 2-1.1 3a8 8 0 0 1 1.8 2.92l3.18.9v4l-3.18.9a8 8 0 0 1-1.8 2.92l1.1 3Z"/></svg>
